<svg width="18" height="18" viewBox="0 0 18 18" fill="none" xmlns="http://www.w3.org/2000/svg">
<path fill-rule="evenodd" clip-rule="evenodd" d="M13.9739 11.3928C13.5121 11.0794 12.9054 11.081 12.4453 11.3968L11.7828 11.8515C11.0449 12.3579 10.0636 12.3304 9.35433 11.7845C8.68587 11.27 8.04785 10.7184 7.44196 10.1338C6.85732 9.52791 6.30572 8.88994 5.79121 8.22142C5.2453 7.51221 5.21785 6.53088 5.7243 5.79291L6.17899 5.13042C6.49474 4.67031 6.49637 4.06364 6.183 3.60184L4.28664 0.807186C3.76277 0.0352249 2.74311 -0.223411 1.91596 0.208118L1.91545 0.208344C0.244639 1.08008 -0.456349 3.09584 0.309185 4.8179C1.41109 7.29686 2.89064 9.56432 4.67623 11.55L6.02572 12.8995C8.01148 14.6851 10.2789 16.1647 12.7579 17.2666C14.48 18.0321 16.4957 17.3311 17.3674 15.6603L17.3676 15.6598C17.7992 14.8327 17.5406 13.813 16.7686 13.2891L13.9739 11.3928Z" fill="white"/>
</svg>
